<svg version="1.0" xmlns="http://www.w3.org/2000/svg" width="300.000000pt" height="300.000000pt" viewBox="0 0 300.000000 300.000000" preserveAspectRatio="xMidYMid meet">
<metadata>Created by potrace 1.10, written by Peter Selinger 2001-2011</metadata>
<g transform="translate(0.000000,300.000000) scale(0.100000,-0.100000)" fill="#ffffff" stroke="none">
<path d="M1803 2708 c-1 -76 -7 -120 -23 -167 -24 -73 -21 -100 18 -136 35 -32 93 -34 123 -4 19 19 20 28 14 86 -11 108 -59 236 -111 301 -19 23 -19 22 -21 -80z"/>
<path d="M1152 2746 c-66 -109 -107 -267 -83 -324 28 -67 120 -60 155 11 18 38 18 39 -4 108 -16 50 -23 96 -24 164 0 52 -3 95 -6 95 -3 0 -20 -24 -38 -54z"/>
<path d="M583 2179 c-48 -85 -83 -200 -83 -276 0 -44 4 -55 26 -72 38 -30 71 -26 110 13 39 39 44 80 17 142 -11 25 -19 80 -22 153 l-6 114 -42 -74z"/>
<path d="M1095 2211 c-50 -22 -90 -68 -124 -141 -22 -49 -25 -68 -26 -170 0 -106 2 -120 29 -177 50 -110 133 -166 217 -148 48 11 112 76 145 148 27 57 29 71 29 177 0 103 -3 121 -26 170 -34 73 -74 119 -124 141 -50 23 -70 23 -120 0z"/>
<path d="M1793 2219 c-42 -12 -107 -88 -135 -158 -18 -46 -22 -76 -23 -166 0 -100 2 -115 29 -172 50 -110 133 -166 217 -148 48 11 112 76 145 148 27 57 29 71 29 177 0 108 -2 119 -31 180 -36 76 -84 126 -133 140 -42 12 -55 11 -98 -1z"/>
<path d="M2368 2134 c-4 -59 -14 -125 -26 -163 -19 -60 -20 -67 -6 -97 16 -33 65 -64 101 -64 34 0 63 42 63 91 0 94 -49 236 -103 303 l-24 30 -5 -100z"/>
<path d="M548 1600 c-43 -23 -79 -67 -110 -136 -32 -70 -32 -198 0 -268 47 -104 111 -156 192 -156 80 0 145 54 193 158 16 36 21 66 21 132 0 92 -19 150 -70 217 -52 69 -151 92 -226 53z"/>
<path d="M2288 1600 c-43 -23 -79 -67 -110 -136 -32 -70 -32 -198 0 -268 32 -71 67 -113 112 -136 80 -41 174 -15 231 63 52 72 62 104 63 203 1 85 -1 95 -34 159 -47 92 -92 128 -168 132 -43 2 -66 -2 -94 -17z"/>
<path d="M1409 1449 c-169 -24 -293 -122 -387 -305 -83 -161 -176 -260 -324 -343 -114 -65 -166 -159 -155 -287 14 -174 151 -309 326 -322 91 -6 149 13 259 85 267 176 478 175 748 -4 108 -71 160 -87 253 -81 129 9 237 81 293 196 30 60 33 76 33 152 0 134 -42 198 -180 278 -49 28 -109 75 -156 121 -62 63 -85 96 -134 191 -74 146 -137 215 -246 270 -94 46 -218 65 -330 49z"/>
</g>
</svg>